<?xml version="1.0"?>
<svg xmlns="http://www.w3.org/2000/svg" xmlns:xlink="http://www.w3.org/1999/xlink" version="1.1" width="500px" height="500px" viewBox="0 0 500 500"><defs><rect id="block" width="17.2413793103" height="17.2413793103" fill="#f0f0f0" fill-opacity="1"/></defs><rect x="0" y="0" width="500" height="500" fill="#ffffff" fill-opacity="0"/><use x="0.0000000000" y="0.0000000000" xlink:href="#block"/><use x="17.2413793103" y="0.0000000000" xlink:href="#block"/><use x="34.4827586207" y="0.0000000000" xlink:href="#block"/><use x="51.7241379310" y="0.0000000000" xlink:href="#block"/><use x="68.9655172414" y="0.0000000000" xlink:href="#block"/><use x="86.2068965517" y="0.0000000000" xlink:href="#block"/><use x="103.4482758621" y="0.0000000000" xlink:href="#block"/><use x="155.1724137931" y="0.0000000000" xlink:href="#block"/><use x="258.6206896552" y="0.0000000000" xlink:href="#block"/><use x="275.8620689655" y="0.0000000000" xlink:href="#block"/><use x="327.5862068966" y="0.0000000000" xlink:href="#block"/><use x="344.8275862069" y="0.0000000000" xlink:href="#block"/><use x="379.3103448276" y="0.0000000000" xlink:href="#block"/><use x="396.5517241379" y="0.0000000000" xlink:href="#block"/><use x="413.7931034483" y="0.0000000000" xlink:href="#block"/><use x="431.0344827586" y="0.0000000000" xlink:href="#block"/><use x="448.2758620690" y="0.0000000000" xlink:href="#block"/><use x="465.5172413793" y="0.0000000000" xlink:href="#block"/><use x="482.7586206897" y="0.0000000000" xlink:href="#block"/><use x="0.0000000000" y="17.2413793103" xlink:href="#block"/><use x="103.4482758621" y="17.2413793103" xlink:href="#block"/><use x="137.9310344828" y="17.2413793103" xlink:href="#block"/><use x="155.1724137931" y="17.2413793103" xlink:href="#block"/><use x="189.6551724138" y="17.2413793103" xlink:href="#block"/><use x="206.8965517241" y="17.2413793103" xlink:href="#block"/><use x="293.1034482759" y="17.2413793103" xlink:href="#block"/><use x="327.5862068966" y="17.2413793103" xlink:href="#block"/><use x="379.3103448276" y="17.2413793103" xlink:href="#block"/><use x="482.7586206897" y="17.2413793103" xlink:href="#block"/><use x="0.0000000000" y="34.4827586207" xlink:href="#block"/><use x="34.4827586207" y="34.4827586207" xlink:href="#block"/><use x="51.7241379310" y="34.4827586207" xlink:href="#block"/><use x="68.9655172414" y="34.4827586207" xlink:href="#block"/><use x="103.4482758621" y="34.4827586207" xlink:href="#block"/><use x="155.1724137931" y="34.4827586207" xlink:href="#block"/><use x="172.4137931034" y="34.4827586207" xlink:href="#block"/><use x="189.6551724138" y="34.4827586207" xlink:href="#block"/><use x="241.3793103448" y="34.4827586207" xlink:href="#block"/><use x="275.8620689655" y="34.4827586207" xlink:href="#block"/><use x="327.5862068966" y="34.4827586207" xlink:href="#block"/><use x="344.8275862069" y="34.4827586207" xlink:href="#block"/><use x="379.3103448276" y="34.4827586207" xlink:href="#block"/><use x="413.7931034483" y="34.4827586207" xlink:href="#block"/><use x="431.0344827586" y="34.4827586207" xlink:href="#block"/><use x="448.2758620690" y="34.4827586207" xlink:href="#block"/><use x="482.7586206897" y="34.4827586207" xlink:href="#block"/><use x="0.0000000000" y="51.7241379310" xlink:href="#block"/><use x="34.4827586207" y="51.7241379310" xlink:href="#block"/><use x="51.7241379310" y="51.7241379310" xlink:href="#block"/><use x="68.9655172414" y="51.7241379310" xlink:href="#block"/><use x="103.4482758621" y="51.7241379310" xlink:href="#block"/><use x="137.9310344828" y="51.7241379310" xlink:href="#block"/><use x="155.1724137931" y="51.7241379310" xlink:href="#block"/><use x="189.6551724138" y="51.7241379310" xlink:href="#block"/><use x="293.1034482759" y="51.7241379310" xlink:href="#block"/><use x="310.3448275862" y="51.7241379310" xlink:href="#block"/><use x="379.3103448276" y="51.7241379310" xlink:href="#block"/><use x="413.7931034483" y="51.7241379310" xlink:href="#block"/><use x="431.0344827586" y="51.7241379310" xlink:href="#block"/><use x="448.2758620690" y="51.7241379310" xlink:href="#block"/><use x="482.7586206897" y="51.7241379310" xlink:href="#block"/><use x="0.0000000000" y="68.9655172414" xlink:href="#block"/><use x="34.4827586207" y="68.9655172414" xlink:href="#block"/><use x="51.7241379310" y="68.9655172414" xlink:href="#block"/><use x="68.9655172414" y="68.9655172414" xlink:href="#block"/><use x="103.4482758621" y="68.9655172414" xlink:href="#block"/><use x="172.4137931034" y="68.9655172414" xlink:href="#block"/><use x="206.8965517241" y="68.9655172414" xlink:href="#block"/><use x="224.1379310345" y="68.9655172414" xlink:href="#block"/><use x="241.3793103448" y="68.9655172414" xlink:href="#block"/><use x="258.6206896552" y="68.9655172414" xlink:href="#block"/><use x="310.3448275862" y="68.9655172414" xlink:href="#block"/><use x="327.5862068966" y="68.9655172414" xlink:href="#block"/><use x="344.8275862069" y="68.9655172414" xlink:href="#block"/><use x="379.3103448276" y="68.9655172414" xlink:href="#block"/><use x="413.7931034483" y="68.9655172414" xlink:href="#block"/><use x="431.0344827586" y="68.9655172414" xlink:href="#block"/><use x="448.2758620690" y="68.9655172414" xlink:href="#block"/><use x="482.7586206897" y="68.9655172414" xlink:href="#block"/><use x="0.0000000000" y="86.2068965517" xlink:href="#block"/><use x="103.4482758621" y="86.2068965517" xlink:href="#block"/><use x="137.9310344828" y="86.2068965517" xlink:href="#block"/><use x="172.4137931034" y="86.2068965517" xlink:href="#block"/><use x="224.1379310345" y="86.2068965517" xlink:href="#block"/><use x="241.3793103448" y="86.2068965517" xlink:href="#block"/><use x="258.6206896552" y="86.2068965517" xlink:href="#block"/><use x="293.1034482759" y="86.2068965517" xlink:href="#block"/><use x="344.8275862069" y="86.2068965517" xlink:href="#block"/><use x="379.3103448276" y="86.2068965517" xlink:href="#block"/><use x="482.7586206897" y="86.2068965517" xlink:href="#block"/><use x="0.0000000000" y="103.4482758621" xlink:href="#block"/><use x="17.2413793103" y="103.4482758621" xlink:href="#block"/><use x="34.4827586207" y="103.4482758621" xlink:href="#block"/><use x="51.7241379310" y="103.4482758621" xlink:href="#block"/><use x="68.9655172414" y="103.4482758621" xlink:href="#block"/><use x="86.2068965517" y="103.4482758621" xlink:href="#block"/><use x="103.4482758621" y="103.4482758621" xlink:href="#block"/><use x="137.9310344828" y="103.4482758621" xlink:href="#block"/><use x="172.4137931034" y="103.4482758621" xlink:href="#block"/><use x="206.8965517241" y="103.4482758621" xlink:href="#block"/><use x="241.3793103448" y="103.4482758621" xlink:href="#block"/><use x="275.8620689655" y="103.4482758621" xlink:href="#block"/><use x="310.3448275862" y="103.4482758621" xlink:href="#block"/><use x="344.8275862069" y="103.4482758621" xlink:href="#block"/><use x="379.3103448276" y="103.4482758621" xlink:href="#block"/><use x="396.5517241379" y="103.4482758621" xlink:href="#block"/><use x="413.7931034483" y="103.4482758621" xlink:href="#block"/><use x="431.0344827586" y="103.4482758621" xlink:href="#block"/><use x="448.2758620690" y="103.4482758621" xlink:href="#block"/><use x="465.5172413793" y="103.4482758621" xlink:href="#block"/><use x="482.7586206897" y="103.4482758621" xlink:href="#block"/><use x="206.8965517241" y="120.6896551724" xlink:href="#block"/><use x="224.1379310345" y="120.6896551724" xlink:href="#block"/><use x="258.6206896552" y="120.6896551724" xlink:href="#block"/><use x="293.1034482759" y="120.6896551724" xlink:href="#block"/><use x="310.3448275862" y="120.6896551724" xlink:href="#block"/><use x="327.5862068966" y="120.6896551724" xlink:href="#block"/><use x="344.8275862069" y="120.6896551724" xlink:href="#block"/><use x="0.0000000000" y="137.9310344828" xlink:href="#block"/><use x="17.2413793103" y="137.9310344828" xlink:href="#block"/><use x="34.4827586207" y="137.9310344828" xlink:href="#block"/><use x="51.7241379310" y="137.9310344828" xlink:href="#block"/><use x="68.9655172414" y="137.9310344828" xlink:href="#block"/><use x="103.4482758621" y="137.9310344828" xlink:href="#block"/><use x="120.6896551724" y="137.9310344828" xlink:href="#block"/><use x="137.9310344828" y="137.9310344828" xlink:href="#block"/><use x="155.1724137931" y="137.9310344828" xlink:href="#block"/><use x="172.4137931034" y="137.9310344828" xlink:href="#block"/><use x="206.8965517241" y="137.9310344828" xlink:href="#block"/><use x="241.3793103448" y="137.9310344828" xlink:href="#block"/><use x="258.6206896552" y="137.9310344828" xlink:href="#block"/><use x="275.8620689655" y="137.9310344828" xlink:href="#block"/><use x="293.1034482759" y="137.9310344828" xlink:href="#block"/><use x="344.8275862069" y="137.9310344828" xlink:href="#block"/><use x="362.0689655172" y="137.9310344828" xlink:href="#block"/><use x="396.5517241379" y="137.9310344828" xlink:href="#block"/><use x="431.0344827586" y="137.9310344828" xlink:href="#block"/><use x="465.5172413793" y="137.9310344828" xlink:href="#block"/><use x="0.0000000000" y="155.1724137931" xlink:href="#block"/><use x="17.2413793103" y="155.1724137931" xlink:href="#block"/><use x="51.7241379310" y="155.1724137931" xlink:href="#block"/><use x="86.2068965517" y="155.1724137931" xlink:href="#block"/><use x="137.9310344828" y="155.1724137931" xlink:href="#block"/><use x="155.1724137931" y="155.1724137931" xlink:href="#block"/><use x="258.6206896552" y="155.1724137931" xlink:href="#block"/><use x="327.5862068966" y="155.1724137931" xlink:href="#block"/><use x="344.8275862069" y="155.1724137931" xlink:href="#block"/><use x="362.0689655172" y="155.1724137931" xlink:href="#block"/><use x="396.5517241379" y="155.1724137931" xlink:href="#block"/><use x="413.7931034483" y="155.1724137931" xlink:href="#block"/><use x="431.0344827586" y="155.1724137931" xlink:href="#block"/><use x="465.5172413793" y="155.1724137931" xlink:href="#block"/><use x="0.0000000000" y="172.4137931034" xlink:href="#block"/><use x="17.2413793103" y="172.4137931034" xlink:href="#block"/><use x="34.4827586207" y="172.4137931034" xlink:href="#block"/><use x="51.7241379310" y="172.4137931034" xlink:href="#block"/><use x="68.9655172414" y="172.4137931034" xlink:href="#block"/><use x="103.4482758621" y="172.4137931034" xlink:href="#block"/><use x="120.6896551724" y="172.4137931034" xlink:href="#block"/><use x="155.1724137931" y="172.4137931034" xlink:href="#block"/><use x="189.6551724138" y="172.4137931034" xlink:href="#block"/><use x="206.8965517241" y="172.4137931034" xlink:href="#block"/><use x="258.6206896552" y="172.4137931034" xlink:href="#block"/><use x="293.1034482759" y="172.4137931034" xlink:href="#block"/><use x="327.5862068966" y="172.4137931034" xlink:href="#block"/><use x="396.5517241379" y="172.4137931034" xlink:href="#block"/><use x="431.0344827586" y="172.4137931034" xlink:href="#block"/><use x="448.2758620690" y="172.4137931034" xlink:href="#block"/><use x="0.0000000000" y="189.6551724138" xlink:href="#block"/><use x="51.7241379310" y="189.6551724138" xlink:href="#block"/><use x="68.9655172414" y="189.6551724138" xlink:href="#block"/><use x="120.6896551724" y="189.6551724138" xlink:href="#block"/><use x="155.1724137931" y="189.6551724138" xlink:href="#block"/><use x="172.4137931034" y="189.6551724138" xlink:href="#block"/><use x="189.6551724138" y="189.6551724138" xlink:href="#block"/><use x="241.3793103448" y="189.6551724138" xlink:href="#block"/><use x="275.8620689655" y="189.6551724138" xlink:href="#block"/><use x="293.1034482759" y="189.6551724138" xlink:href="#block"/><use x="310.3448275862" y="189.6551724138" xlink:href="#block"/><use x="327.5862068966" y="189.6551724138" xlink:href="#block"/><use x="362.0689655172" y="189.6551724138" xlink:href="#block"/><use x="379.3103448276" y="189.6551724138" xlink:href="#block"/><use x="396.5517241379" y="189.6551724138" xlink:href="#block"/><use x="413.7931034483" y="189.6551724138" xlink:href="#block"/><use x="431.0344827586" y="189.6551724138" xlink:href="#block"/><use x="482.7586206897" y="189.6551724138" xlink:href="#block"/><use x="0.0000000000" y="206.8965517241" xlink:href="#block"/><use x="17.2413793103" y="206.8965517241" xlink:href="#block"/><use x="34.4827586207" y="206.8965517241" xlink:href="#block"/><use x="68.9655172414" y="206.8965517241" xlink:href="#block"/><use x="86.2068965517" y="206.8965517241" xlink:href="#block"/><use x="103.4482758621" y="206.8965517241" xlink:href="#block"/><use x="137.9310344828" y="206.8965517241" xlink:href="#block"/><use x="155.1724137931" y="206.8965517241" xlink:href="#block"/><use x="189.6551724138" y="206.8965517241" xlink:href="#block"/><use x="258.6206896552" y="206.8965517241" xlink:href="#block"/><use x="293.1034482759" y="206.8965517241" xlink:href="#block"/><use x="344.8275862069" y="206.8965517241" xlink:href="#block"/><use x="362.0689655172" y="206.8965517241" xlink:href="#block"/><use x="379.3103448276" y="206.8965517241" xlink:href="#block"/><use x="396.5517241379" y="206.8965517241" xlink:href="#block"/><use x="413.7931034483" y="206.8965517241" xlink:href="#block"/><use x="34.4827586207" y="224.1379310345" xlink:href="#block"/><use x="51.7241379310" y="224.1379310345" xlink:href="#block"/><use x="86.2068965517" y="224.1379310345" xlink:href="#block"/><use x="120.6896551724" y="224.1379310345" xlink:href="#block"/><use x="137.9310344828" y="224.1379310345" xlink:href="#block"/><use x="172.4137931034" y="224.1379310345" xlink:href="#block"/><use x="206.8965517241" y="224.1379310345" xlink:href="#block"/><use x="224.1379310345" y="224.1379310345" xlink:href="#block"/><use x="241.3793103448" y="224.1379310345" xlink:href="#block"/><use x="258.6206896552" y="224.1379310345" xlink:href="#block"/><use x="275.8620689655" y="224.1379310345" xlink:href="#block"/><use x="310.3448275862" y="224.1379310345" xlink:href="#block"/><use x="344.8275862069" y="224.1379310345" xlink:href="#block"/><use x="362.0689655172" y="224.1379310345" xlink:href="#block"/><use x="431.0344827586" y="224.1379310345" xlink:href="#block"/><use x="465.5172413793" y="224.1379310345" xlink:href="#block"/><use x="0.0000000000" y="241.3793103448" xlink:href="#block"/><use x="17.2413793103" y="241.3793103448" xlink:href="#block"/><use x="34.4827586207" y="241.3793103448" xlink:href="#block"/><use x="68.9655172414" y="241.3793103448" xlink:href="#block"/><use x="103.4482758621" y="241.3793103448" xlink:href="#block"/><use x="137.9310344828" y="241.3793103448" xlink:href="#block"/><use x="155.1724137931" y="241.3793103448" xlink:href="#block"/><use x="172.4137931034" y="241.3793103448" xlink:href="#block"/><use x="224.1379310345" y="241.3793103448" xlink:href="#block"/><use x="241.3793103448" y="241.3793103448" xlink:href="#block"/><use x="258.6206896552" y="241.3793103448" xlink:href="#block"/><use x="275.8620689655" y="241.3793103448" xlink:href="#block"/><use x="293.1034482759" y="241.3793103448" xlink:href="#block"/><use x="327.5862068966" y="241.3793103448" xlink:href="#block"/><use x="431.0344827586" y="241.3793103448" xlink:href="#block"/><use x="448.2758620690" y="241.3793103448" xlink:href="#block"/><use x="465.5172413793" y="241.3793103448" xlink:href="#block"/><use x="482.7586206897" y="241.3793103448" xlink:href="#block"/><use x="0.0000000000" y="258.6206896552" xlink:href="#block"/><use x="155.1724137931" y="258.6206896552" xlink:href="#block"/><use x="172.4137931034" y="258.6206896552" xlink:href="#block"/><use x="206.8965517241" y="258.6206896552" xlink:href="#block"/><use x="224.1379310345" y="258.6206896552" xlink:href="#block"/><use x="275.8620689655" y="258.6206896552" xlink:href="#block"/><use x="293.1034482759" y="258.6206896552" xlink:href="#block"/><use x="310.3448275862" y="258.6206896552" xlink:href="#block"/><use x="327.5862068966" y="258.6206896552" xlink:href="#block"/><use x="344.8275862069" y="258.6206896552" xlink:href="#block"/><use x="379.3103448276" y="258.6206896552" xlink:href="#block"/><use x="396.5517241379" y="258.6206896552" xlink:href="#block"/><use x="413.7931034483" y="258.6206896552" xlink:href="#block"/><use x="465.5172413793" y="258.6206896552" xlink:href="#block"/><use x="482.7586206897" y="258.6206896552" xlink:href="#block"/><use x="68.9655172414" y="275.8620689655" xlink:href="#block"/><use x="103.4482758621" y="275.8620689655" xlink:href="#block"/><use x="137.9310344828" y="275.8620689655" xlink:href="#block"/><use x="155.1724137931" y="275.8620689655" xlink:href="#block"/><use x="206.8965517241" y="275.8620689655" xlink:href="#block"/><use x="241.3793103448" y="275.8620689655" xlink:href="#block"/><use x="258.6206896552" y="275.8620689655" xlink:href="#block"/><use x="275.8620689655" y="275.8620689655" xlink:href="#block"/><use x="293.1034482759" y="275.8620689655" xlink:href="#block"/><use x="344.8275862069" y="275.8620689655" xlink:href="#block"/><use x="396.5517241379" y="275.8620689655" xlink:href="#block"/><use x="0.0000000000" y="293.1034482759" xlink:href="#block"/><use x="17.2413793103" y="293.1034482759" xlink:href="#block"/><use x="34.4827586207" y="293.1034482759" xlink:href="#block"/><use x="51.7241379310" y="293.1034482759" xlink:href="#block"/><use x="68.9655172414" y="293.1034482759" xlink:href="#block"/><use x="137.9310344828" y="293.1034482759" xlink:href="#block"/><use x="258.6206896552" y="293.1034482759" xlink:href="#block"/><use x="327.5862068966" y="293.1034482759" xlink:href="#block"/><use x="344.8275862069" y="293.1034482759" xlink:href="#block"/><use x="396.5517241379" y="293.1034482759" xlink:href="#block"/><use x="413.7931034483" y="293.1034482759" xlink:href="#block"/><use x="431.0344827586" y="293.1034482759" xlink:href="#block"/><use x="0.0000000000" y="310.3448275862" xlink:href="#block"/><use x="34.4827586207" y="310.3448275862" xlink:href="#block"/><use x="51.7241379310" y="310.3448275862" xlink:href="#block"/><use x="68.9655172414" y="310.3448275862" xlink:href="#block"/><use x="103.4482758621" y="310.3448275862" xlink:href="#block"/><use x="120.6896551724" y="310.3448275862" xlink:href="#block"/><use x="172.4137931034" y="310.3448275862" xlink:href="#block"/><use x="189.6551724138" y="310.3448275862" xlink:href="#block"/><use x="206.8965517241" y="310.3448275862" xlink:href="#block"/><use x="293.1034482759" y="310.3448275862" xlink:href="#block"/><use x="327.5862068966" y="310.3448275862" xlink:href="#block"/><use x="431.0344827586" y="310.3448275862" xlink:href="#block"/><use x="448.2758620690" y="310.3448275862" xlink:href="#block"/><use x="465.5172413793" y="310.3448275862" xlink:href="#block"/><use x="0.0000000000" y="327.5862068966" xlink:href="#block"/><use x="51.7241379310" y="327.5862068966" xlink:href="#block"/><use x="68.9655172414" y="327.5862068966" xlink:href="#block"/><use x="120.6896551724" y="327.5862068966" xlink:href="#block"/><use x="172.4137931034" y="327.5862068966" xlink:href="#block"/><use x="189.6551724138" y="327.5862068966" xlink:href="#block"/><use x="241.3793103448" y="327.5862068966" xlink:href="#block"/><use x="275.8620689655" y="327.5862068966" xlink:href="#block"/><use x="327.5862068966" y="327.5862068966" xlink:href="#block"/><use x="344.8275862069" y="327.5862068966" xlink:href="#block"/><use x="362.0689655172" y="327.5862068966" xlink:href="#block"/><use x="379.3103448276" y="327.5862068966" xlink:href="#block"/><use x="396.5517241379" y="327.5862068966" xlink:href="#block"/><use x="413.7931034483" y="327.5862068966" xlink:href="#block"/><use x="465.5172413793" y="327.5862068966" xlink:href="#block"/><use x="482.7586206897" y="327.5862068966" xlink:href="#block"/><use x="0.0000000000" y="344.8275862069" xlink:href="#block"/><use x="34.4827586207" y="344.8275862069" xlink:href="#block"/><use x="103.4482758621" y="344.8275862069" xlink:href="#block"/><use x="137.9310344828" y="344.8275862069" xlink:href="#block"/><use x="155.1724137931" y="344.8275862069" xlink:href="#block"/><use x="172.4137931034" y="344.8275862069" xlink:href="#block"/><use x="189.6551724138" y="344.8275862069" xlink:href="#block"/><use x="258.6206896552" y="344.8275862069" xlink:href="#block"/><use x="275.8620689655" y="344.8275862069" xlink:href="#block"/><use x="293.1034482759" y="344.8275862069" xlink:href="#block"/><use x="344.8275862069" y="344.8275862069" xlink:href="#block"/><use x="362.0689655172" y="344.8275862069" xlink:href="#block"/><use x="379.3103448276" y="344.8275862069" xlink:href="#block"/><use x="396.5517241379" y="344.8275862069" xlink:href="#block"/><use x="413.7931034483" y="344.8275862069" xlink:href="#block"/><use x="431.0344827586" y="344.8275862069" xlink:href="#block"/><use x="448.2758620690" y="344.8275862069" xlink:href="#block"/><use x="465.5172413793" y="344.8275862069" xlink:href="#block"/><use x="137.9310344828" y="362.0689655172" xlink:href="#block"/><use x="206.8965517241" y="362.0689655172" xlink:href="#block"/><use x="224.1379310345" y="362.0689655172" xlink:href="#block"/><use x="241.3793103448" y="362.0689655172" xlink:href="#block"/><use x="310.3448275862" y="362.0689655172" xlink:href="#block"/><use x="327.5862068966" y="362.0689655172" xlink:href="#block"/><use x="344.8275862069" y="362.0689655172" xlink:href="#block"/><use x="413.7931034483" y="362.0689655172" xlink:href="#block"/><use x="465.5172413793" y="362.0689655172" xlink:href="#block"/><use x="0.0000000000" y="379.3103448276" xlink:href="#block"/><use x="17.2413793103" y="379.3103448276" xlink:href="#block"/><use x="34.4827586207" y="379.3103448276" xlink:href="#block"/><use x="51.7241379310" y="379.3103448276" xlink:href="#block"/><use x="68.9655172414" y="379.3103448276" xlink:href="#block"/><use x="86.2068965517" y="379.3103448276" xlink:href="#block"/><use x="103.4482758621" y="379.3103448276" xlink:href="#block"/><use x="137.9310344828" y="379.3103448276" xlink:href="#block"/><use x="155.1724137931" y="379.3103448276" xlink:href="#block"/><use x="224.1379310345" y="379.3103448276" xlink:href="#block"/><use x="241.3793103448" y="379.3103448276" xlink:href="#block"/><use x="293.1034482759" y="379.3103448276" xlink:href="#block"/><use x="310.3448275862" y="379.3103448276" xlink:href="#block"/><use x="327.5862068966" y="379.3103448276" xlink:href="#block"/><use x="344.8275862069" y="379.3103448276" xlink:href="#block"/><use x="379.3103448276" y="379.3103448276" xlink:href="#block"/><use x="413.7931034483" y="379.3103448276" xlink:href="#block"/><use x="431.0344827586" y="379.3103448276" xlink:href="#block"/><use x="448.2758620690" y="379.3103448276" xlink:href="#block"/><use x="0.0000000000" y="396.5517241379" xlink:href="#block"/><use x="103.4482758621" y="396.5517241379" xlink:href="#block"/><use x="206.8965517241" y="396.5517241379" xlink:href="#block"/><use x="224.1379310345" y="396.5517241379" xlink:href="#block"/><use x="275.8620689655" y="396.5517241379" xlink:href="#block"/><use x="293.1034482759" y="396.5517241379" xlink:href="#block"/><use x="310.3448275862" y="396.5517241379" xlink:href="#block"/><use x="344.8275862069" y="396.5517241379" xlink:href="#block"/><use x="413.7931034483" y="396.5517241379" xlink:href="#block"/><use x="448.2758620690" y="396.5517241379" xlink:href="#block"/><use x="465.5172413793" y="396.5517241379" xlink:href="#block"/><use x="482.7586206897" y="396.5517241379" xlink:href="#block"/><use x="0.0000000000" y="413.7931034483" xlink:href="#block"/><use x="34.4827586207" y="413.7931034483" xlink:href="#block"/><use x="51.7241379310" y="413.7931034483" xlink:href="#block"/><use x="68.9655172414" y="413.7931034483" xlink:href="#block"/><use x="103.4482758621" y="413.7931034483" xlink:href="#block"/><use x="137.9310344828" y="413.7931034483" xlink:href="#block"/><use x="172.4137931034" y="413.7931034483" xlink:href="#block"/><use x="206.8965517241" y="413.7931034483" xlink:href="#block"/><use x="241.3793103448" y="413.7931034483" xlink:href="#block"/><use x="258.6206896552" y="413.7931034483" xlink:href="#block"/><use x="275.8620689655" y="413.7931034483" xlink:href="#block"/><use x="344.8275862069" y="413.7931034483" xlink:href="#block"/><use x="362.0689655172" y="413.7931034483" xlink:href="#block"/><use x="379.3103448276" y="413.7931034483" xlink:href="#block"/><use x="396.5517241379" y="413.7931034483" xlink:href="#block"/><use x="413.7931034483" y="413.7931034483" xlink:href="#block"/><use x="448.2758620690" y="413.7931034483" xlink:href="#block"/><use x="465.5172413793" y="413.7931034483" xlink:href="#block"/><use x="482.7586206897" y="413.7931034483" xlink:href="#block"/><use x="0.0000000000" y="431.0344827586" xlink:href="#block"/><use x="34.4827586207" y="431.0344827586" xlink:href="#block"/><use x="51.7241379310" y="431.0344827586" xlink:href="#block"/><use x="68.9655172414" y="431.0344827586" xlink:href="#block"/><use x="103.4482758621" y="431.0344827586" xlink:href="#block"/><use x="137.9310344828" y="431.0344827586" xlink:href="#block"/><use x="172.4137931034" y="431.0344827586" xlink:href="#block"/><use x="258.6206896552" y="431.0344827586" xlink:href="#block"/><use x="344.8275862069" y="431.0344827586" xlink:href="#block"/><use x="362.0689655172" y="431.0344827586" xlink:href="#block"/><use x="396.5517241379" y="431.0344827586" xlink:href="#block"/><use x="0.0000000000" y="448.2758620690" xlink:href="#block"/><use x="34.4827586207" y="448.2758620690" xlink:href="#block"/><use x="51.7241379310" y="448.2758620690" xlink:href="#block"/><use x="68.9655172414" y="448.2758620690" xlink:href="#block"/><use x="103.4482758621" y="448.2758620690" xlink:href="#block"/><use x="137.9310344828" y="448.2758620690" xlink:href="#block"/><use x="189.6551724138" y="448.2758620690" xlink:href="#block"/><use x="206.8965517241" y="448.2758620690" xlink:href="#block"/><use x="293.1034482759" y="448.2758620690" xlink:href="#block"/><use x="327.5862068966" y="448.2758620690" xlink:href="#block"/><use x="362.0689655172" y="448.2758620690" xlink:href="#block"/><use x="379.3103448276" y="448.2758620690" xlink:href="#block"/><use x="396.5517241379" y="448.2758620690" xlink:href="#block"/><use x="448.2758620690" y="448.2758620690" xlink:href="#block"/><use x="465.5172413793" y="448.2758620690" xlink:href="#block"/><use x="0.0000000000" y="465.5172413793" xlink:href="#block"/><use x="103.4482758621" y="465.5172413793" xlink:href="#block"/><use x="137.9310344828" y="465.5172413793" xlink:href="#block"/><use x="172.4137931034" y="465.5172413793" xlink:href="#block"/><use x="189.6551724138" y="465.5172413793" xlink:href="#block"/><use x="241.3793103448" y="465.5172413793" xlink:href="#block"/><use x="275.8620689655" y="465.5172413793" xlink:href="#block"/><use x="293.1034482759" y="465.5172413793" xlink:href="#block"/><use x="310.3448275862" y="465.5172413793" xlink:href="#block"/><use x="344.8275862069" y="465.5172413793" xlink:href="#block"/><use x="362.0689655172" y="465.5172413793" xlink:href="#block"/><use x="431.0344827586" y="465.5172413793" xlink:href="#block"/><use x="448.2758620690" y="465.5172413793" xlink:href="#block"/><use x="482.7586206897" y="465.5172413793" xlink:href="#block"/><use x="0.0000000000" y="482.7586206897" xlink:href="#block"/><use x="17.2413793103" y="482.7586206897" xlink:href="#block"/><use x="34.4827586207" y="482.7586206897" xlink:href="#block"/><use x="51.7241379310" y="482.7586206897" xlink:href="#block"/><use x="68.9655172414" y="482.7586206897" xlink:href="#block"/><use x="86.2068965517" y="482.7586206897" xlink:href="#block"/><use x="103.4482758621" y="482.7586206897" xlink:href="#block"/><use x="137.9310344828" y="482.7586206897" xlink:href="#block"/><use x="155.1724137931" y="482.7586206897" xlink:href="#block"/><use x="172.4137931034" y="482.7586206897" xlink:href="#block"/><use x="189.6551724138" y="482.7586206897" xlink:href="#block"/><use x="258.6206896552" y="482.7586206897" xlink:href="#block"/><use x="293.1034482759" y="482.7586206897" xlink:href="#block"/><use x="327.5862068966" y="482.7586206897" xlink:href="#block"/><use x="344.8275862069" y="482.7586206897" xlink:href="#block"/><use x="362.0689655172" y="482.7586206897" xlink:href="#block"/><use x="379.3103448276" y="482.7586206897" xlink:href="#block"/><use x="413.7931034483" y="482.7586206897" xlink:href="#block"/><use x="431.0344827586" y="482.7586206897" xlink:href="#block"/><use x="448.2758620690" y="482.7586206897" xlink:href="#block"/></svg>
